<?xml version="1.0" encoding="utf-8"?>
<?xml-stylesheet type="text/xsl" href="rss1.xsl"?>
<rss version="2.0" xmlns:atom="http://www.w3.org/2005/Atom" xmlns:content="http://purl.org/rss/1.0/modules/content/" xmlns:dc="http://purl.org/dc/elements/1.1/" xmlns:media="http://search.yahoo.com/mrss/">
<channel>
 <title>Getty</title>
 <link>http://www.gettyimg.com/</link>
 <atom:link href="http://www.gettyimg.com/" rel="self" type="application/rss+xml" />

 
                <item>
                <title><![CDATA[【Requests】[REQ CAP] - Detective Conan (Case Closed) 名探偵コナン Netflix/Crunchyroll Remastered Version]]></title>
                <link><![CDATA[https://sharemania.us/threads/detective-conan-case-closed-%E5%90%8D%E6%8E%A2%E5%81%B5%E3%82%B3%E3%83%8A%E3%83%B3-netflix-crunchyroll-remastered-version.227742/]]></link>
                <description><![CDATA[<article>
<blockquote class="messageText SelectQuoteContainer ugc baseHtml">
Can anyone rip it please?
<div class="messageTextEndMarker">&nbsp;</div>
</blockquote>
</article>]]></description>
                <author><![CDATA[evanmimi0811]]></author>
                </item>

                
                <item>
                <title><![CDATA[【Albums (lossy)】360 RA - Victoria Monet - JAGUAR II [MHM1 | 22.2 | 16bit/48kHz | 1 600kbits]]]></title>
                <link><![CDATA[https://sharemania.us/threads/victoria-monet-jaguar-ii-mhm1-22-2-16bit-48khz-1-600kbits.227741/]]></link>
                <description><![CDATA[<article>
<blockquote class="messageText SelectQuoteContainer ugc baseHtml">
<img src="https://a5.mzstatic.com/us/r1000/0/Music126/v4/8a/80/48/8a80487e-4bfc-f07c-c47e-79d21905f7e8/196589891235.jpg" class="bbCodeImage LbImage" alt="[​IMG]" data-url="https://a5.mzstatic.com/us/r1000/0/Music126/v4/8a/80/48/8a80487e-4bfc-f07c-c47e-79d21905f7e8/196589891235.jpg" style=""> <br>
<br>
<b>Album: JAGUAR II<br>
Artist: Victoria Monet<br>
Genre: R&amp;B/Soul<br>
Release date: 25/08/2023<br>
<b><b>Format: <b>.mp4 MPEG-H Profile MHM1 Level 4 under 360 Reality Audio licence | AMZN-DL</b></b></b></b><br>
<br>
<div class="bbCodeBlock bbCodeVfcHH HiddenContent">
<div class="attribution type">Hidden Content:</div>
<blockquote>You must reply before you can see the hidden data contained here.</blockquote>
</div>
<div class="messageTextEndMarker">&nbsp;</div>
</blockquote>
</article>]]></description>
                <author><![CDATA[SonMaxime]]></author>
                </item>

                
                <item>
                <title><![CDATA[【PRORES HD】Ciara x Chris Brown - How We Roll |ProRes 1080|]]></title>
                <link><![CDATA[https://sharemania.us/threads/ciara-x-chris-brown-how-we-roll-prores-1080.227740/]]></link>
                <description><![CDATA[<article>
<blockquote class="messageText SelectQuoteContainer ugc baseHtml">
<div style="text-align: center"><img src="https://i.imgur.com/gQCScpO.gif" class="bbCodeImage LbImage" alt="[​IMG]" data-url="https://i.imgur.com/gQCScpO.gif" style=""><br>
<br>
​</div>
<div class="ToggleTriggerAnchor bbCodeSpoilerContainer">
<button type="button" class="button bbCodeSpoilerButton ToggleTrigger Tooltip JsOnly" data-target="> .SpoilerTarget"><span>Spoiler: <span class="SpoilerTitle">ProRes</span></span></button>
<div class="SpoilerTarget bbCodeSpoilerText">
<div class="bbCodeBlock bbCodeCode">
<div class="type">Code:</div>
<pre>Format                                   : MPEG-4
Format profile                           : QuickTime
Codec ID                                 : qt   2005.03 (qt  )
File size                                : 5.59 GiB
Duration                                 : 4 min 20 s
Overall bit rate mode                    : Variable
Overall bit rate                         : 184 Mb/s
Encoded date                             : UTC 2023-08-03 17:37:44
Tagged date                              : UTC 2023-08-03 17:38:55
Writing library                          : Apple QuickTime
TIM                                      : 00:00:00:00
TSC                                      : 24000
TSZ                                      : 1001

Video
ID                                       : 1
Format                                   : ProRes
Format version                           : Version 0
Format profile                           : 422 HQ
Codec ID                                 : apch
Duration                                 : 4 min 20 s
Bit rate mode                            : Variable
Bit rate                                 : 183 Mb/s
Width                                    : 1 920 pixels
Height                                   : 1 080 pixels
Display aspect ratio                     : 16:9
Frame rate mode                          : Constant
Frame rate                               : 23.976 (24000/1001) FPS
Color space                              : YUV
Chroma subsampling                       : 4:2:2
Scan type                                : Progressive
Bits/(Pixel*Frame)                       : 3.673
Stream size                              : 5.54 GiB (99%)
Writing library                          : Apple
Language                                 : English
Encoded date                             : UTC 2023-08-03 17:37:44
Tagged date                              : UTC 2023-08-03 17:37:44
Color primaries                          : BT.709
Transfer characteristics                 : BT.709
Matrix coefficients                      : BT.709
Menus                                    : 0

Audio
ID                                       : 2
Format                                   : PCM
Format settings                          : Little / Signed
Codec ID                                 : sowt
Duration                                 : 4 min 20 s
Bit rate mode                            : Constant
Bit rate                                 : 1 536 kb/s
Channel(s)                               : 2 channels
Channel layout                           : L R
Sampling rate                            : 48.0 kHz
Bit depth                                : 16 bits
Stream size                              : 47.7 MiB (1%)
Language                                 : English
Encoded date                             : UTC 2023-08-03 17:37:44
Tagged date                              : UTC 2023-08-03 17:37:44
Menus                                    : 0

Other
ID                                       : 3
Type                                     : Time code
Format                                   : QuickTime TC
Duration                                 : 4 min 20 s
Frame rate                               : 23.976 (24000/1001) FPS
Time code of first frame                 : 00:00:00:00
Time code, striped                       : Yes
Language                                 : English
Encoded date                             : UTC 2023-08-03 17:37:44
Tagged date                              : UTC 2023-08-03 17:37:44</pre>
</div><div style="text-align: center">​</div></div>
</div><div style="text-align: center"><br>
<br>
<br>
<a href="http:// https://send.cm/kn6aet5433jd" target="_blank" class="externalLink" rel="nofollow">
<div class="bbCodeBlock bbCodeVfcHH HiddenContent">
<div class="attribution type">Hidden Content:</div>
<blockquote>You must reply before you can see the hidden data contained here.</blockquote>
</div></a>​</div>
<div class="messageTextEndMarker">&nbsp;</div>
</blockquote>
</article>]]></description>
                <author><![CDATA[fstambuk]]></author>
                </item>

                </channel></rss>